<svg width="136" height="26" viewBox="0 0 136 26" fill="none" xmlns="http://www.w3.org/2000/svg">
<path d="M0.875 13.0625C0.875 10.6979 1.22396 8.59375 1.92188 6.75C2.63021 4.89583 3.73438 3.43229 5.23438 2.35938C6.73438 1.28646 8.63021 0.75 10.9219 0.75C12.4844 0.75 14.1354 0.953125 15.875 1.35938C16.4375 1.69271 16.9271 2.04167 17.3438 2.40625C17.7708 2.76042 18.1771 3.19271 18.5625 3.70312C18.5625 4.44271 18.4635 5.42708 18.2656 6.65625C18.0677 7.875 17.8177 9.01562 17.5156 10.0781C17.224 11.1302 16.9427 11.8125 16.6719 12.125C16.401 12.2604 16.1719 12.3542 15.9844 12.4062C15.7969 12.4479 15.5052 12.4688 15.1094 12.4688C14.6198 12.4688 14.1615 12.4323 13.7344 12.3594C13.3073 12.2865 12.9844 12.1875 12.7656 12.0625L12.2188 6.79688C11.4792 6.58854 10.4531 6.48438 9.14062 6.48438C8.78646 6.48438 8.52604 6.48958 8.35938 6.5C7.91146 7.9375 7.66146 9.86979 7.60938 12.2969C7.59896 12.5885 7.59375 13.0312 7.59375 13.625C7.59375 15.0208 7.66667 16.151 7.8125 17.0156C7.94792 17.8281 8.09375 18.4375 8.25 18.8438C8.40625 19.25 8.67708 19.5625 9.0625 19.7812C9.45833 20 10.0469 20.1094 10.8281 20.1094C11.8802 20.1094 12.849 19.9583 13.7344 19.6562C14.6302 19.3438 15.6042 18.8906 16.6562 18.2969C17.0521 18.724 17.3542 19.0729 17.5625 19.3438C17.7812 19.6146 17.9792 19.9479 18.1562 20.3438C18.3438 20.7396 18.4688 21.1927 18.5312 21.7031C18.3646 22.0469 17.9219 22.5052 17.2031 23.0781C16.4844 23.651 15.5417 24.1667 14.375 24.625C13.2083 25.0833 11.901 25.3125 10.4531 25.3125C7.06771 25.3125 4.625 24.2552 3.125 22.1406C1.625 20.026 0.875 17 0.875 13.0625ZM20.2744 15.2969C20.2744 13.7865 20.3056 12.2135 20.3681 10.5781C20.4202 8.85938 20.5035 7.34375 20.6181 6.03125H20.5869L18.8213 5.70312C18.7067 5.19271 18.6233 4.76042 18.5713 4.40625C18.5296 4.04167 18.5088 3.66667 18.5088 3.28125C18.5088 3.01042 18.514 2.80208 18.5244 2.65625C18.7431 2.375 19.0765 2.09375 19.5244 1.8125C19.9827 1.52083 20.514 1.27604 21.1181 1.07812C21.7223 0.880208 22.3473 0.78125 22.9931 0.78125C24.316 0.78125 25.3004 1.11979 25.9463 1.79688C26.5921 2.47396 26.8838 3.48438 26.8213 4.82812L26.7744 6.1875C26.7327 8.46875 26.639 10.3229 26.4931 11.75H31.8056C31.8369 9.67708 31.9306 7.76562 32.0869 6.01562H32.0556L29.8213 5.6875C29.7067 5.17708 29.6233 4.74479 29.5713 4.39062C29.5296 4.02604 29.5088 3.65104 29.5088 3.26562C29.5088 2.99479 29.514 2.78646 29.5244 2.64062C29.7431 2.36979 30.1181 2.08854 30.6494 1.79688C31.1806 1.50521 31.79 1.26042 32.4775 1.0625C33.1754 0.864583 33.8629 0.765625 34.54 0.765625C35.8629 0.765625 36.8733 1.10938 37.5713 1.79688C38.2796 2.47396 38.6338 3.47917 38.6338 4.8125C38.6338 8.54167 38.0556 13.7656 36.8994 20.4844L39.2119 19.4844C40.0035 20.1719 40.4567 21.099 40.5713 22.2656C40.5713 22.3385 40.3265 22.6406 39.8369 23.1719C39.3577 23.6927 38.7275 24.1823 37.9463 24.6406C37.1754 25.0885 36.2952 25.3125 35.3056 25.3125C34.2535 25.3125 33.3838 25.0312 32.6963 24.4688C32.0192 23.9062 31.6858 22.9219 31.6963 21.5156V20.5C31.6963 18.7708 31.7327 17.3333 31.8056 16.1875C31.566 16.2083 31.2015 16.2188 30.7119 16.2188C29.9931 16.2188 28.9358 16.1562 27.54 16.0312C26.8733 15.9688 26.3994 15.9271 26.1181 15.9062C26.1494 16.9583 26.2275 18.0052 26.3525 19.0469C26.4775 20.0781 26.639 21.2448 26.8369 22.5469C26.9619 23.3698 27.0504 23.9896 27.1025 24.4062C26.6754 24.6667 25.9983 24.8802 25.0713 25.0469C24.1442 25.2135 23.3577 25.2969 22.7119 25.2969C22.389 25.2969 22.0817 25.2708 21.79 25.2188C21.5088 25.1667 21.1963 25.0885 20.8525 24.9844C20.4671 22.5781 20.2744 19.349 20.2744 15.2969ZM40.8144 13.1875C40.8144 4.91667 44.0644 0.78125 50.5644 0.78125C53.1373 0.78125 55.1425 1.31771 56.58 2.39062C58.0279 3.45312 59.0227 4.89062 59.5644 6.70312C60.1165 8.50521 60.3925 10.6667 60.3925 13.1875C60.3925 16.8958 59.6321 19.8438 58.1113 22.0312C56.5904 24.2188 54.0748 25.3125 50.5644 25.3125C47.0331 25.3125 44.5227 24.2292 43.0331 22.0625C41.554 19.8958 40.8144 16.9375 40.8144 13.1875ZM51.3456 20.3281C52.1998 20.3281 52.6894 20.2812 52.8144 20.1875C53.0748 19.7292 53.2727 18.9323 53.4081 17.7969C53.5435 16.651 53.6113 15.3698 53.6113 13.9531C53.6113 12.4635 53.5383 11.0833 53.3925 9.8125C53.2571 8.53125 53.0644 7.63542 52.8144 7.125C52.554 6.91667 52.1685 6.76042 51.6581 6.65625C51.1477 6.55208 50.5852 6.49479 49.9706 6.48438C49.6165 6.48438 49.2935 6.50521 49.0019 6.54688C48.7206 6.57812 48.5175 6.63021 48.3925 6.70312C48.0904 7.22396 47.8665 7.97917 47.7206 8.96875C47.5852 9.94792 47.5175 11.0677 47.5175 12.3281C47.5175 13.7552 47.5956 15.1771 47.7519 16.5938C47.9081 18.0104 48.1008 19.0938 48.33 19.8438C48.4758 20 48.8456 20.1198 49.4394 20.2031C50.0331 20.2865 50.6685 20.3281 51.3456 20.3281ZM63.5575 24.2344C63.5575 23.7865 63.5367 22.4583 63.495 20.25C63.4117 17.0208 63.37 14.2292 63.37 11.875C63.37 9.57292 63.4117 7.625 63.495 6.03125L60.9481 5.70312C60.7919 5.06771 60.6877 4.54167 60.6356 4.125C60.5835 3.69792 60.5627 3.20833 60.5731 2.65625C60.7815 2.39583 61.1669 2.11979 61.7294 1.82812C62.3023 1.52604 62.9481 1.27604 63.6669 1.07812C64.396 0.880208 65.0992 0.78125 65.7762 0.78125C66.9846 0.78125 67.969 1.05208 68.7294 1.59375C69.5002 2.13542 69.9065 2.91667 69.9481 3.9375C69.969 4.54167 69.9794 5.05729 69.9794 5.48438C69.9794 7.45312 69.896 9.82812 69.7294 12.6094C69.5627 15.3802 69.3387 18.6562 69.0575 22.4375L68.9012 24.6406C68.0783 25.099 67.1408 25.3281 66.0887 25.3281C65.1929 25.3281 64.3492 25.1667 63.5575 24.8438V24.2344ZM71.6913 13.0625C71.6913 10.6979 72.0402 8.59375 72.7381 6.75C73.4465 4.89583 74.5506 3.43229 76.0506 2.35938C77.5506 1.28646 79.4465 0.75 81.7381 0.75C83.3006 0.75 84.9517 0.953125 86.6913 1.35938C87.2538 1.69271 87.7433 2.04167 88.16 2.40625C88.5871 2.76042 88.9933 3.19271 89.3788 3.70312C89.3788 4.44271 89.2798 5.42708 89.0819 6.65625C88.884 7.875 88.634 9.01562 88.3319 10.0781C88.0402 11.1302 87.759 11.8125 87.4881 12.125C87.2173 12.2604 86.9881 12.3542 86.8006 12.4062C86.6131 12.4479 86.3215 12.4688 85.9256 12.4688C85.436 12.4688 84.9777 12.4323 84.5506 12.3594C84.1235 12.2865 83.8006 12.1875 83.5819 12.0625L83.035 6.79688C82.2954 6.58854 81.2694 6.48438 79.9569 6.48438C79.6027 6.48438 79.3423 6.48958 79.1756 6.5C78.7277 7.9375 78.4777 9.86979 78.4256 12.2969C78.4152 12.5885 78.41 13.0312 78.41 13.625C78.41 15.0208 78.4829 16.151 78.6288 17.0156C78.7642 17.8281 78.91 18.4375 79.0663 18.8438C79.2225 19.25 79.4933 19.5625 79.8788 19.7812C80.2746 20 80.8631 20.1094 81.6444 20.1094C82.6965 20.1094 83.6652 19.9583 84.5506 19.6562C85.4465 19.3438 86.4204 18.8906 87.4725 18.2969C87.8683 18.724 88.1704 19.0729 88.3788 19.3438C88.5975 19.6146 88.7954 19.9479 88.9725 20.3438C89.16 20.7396 89.285 21.1927 89.3475 21.7031C89.1808 22.0469 88.7381 22.5052 88.0194 23.0781C87.3006 23.651 86.3579 24.1667 85.1913 24.625C84.0246 25.0833 82.7173 25.3125 81.2694 25.3125C77.884 25.3125 75.4413 24.2552 73.9413 22.1406C72.4413 20.026 71.6913 17 71.6913 13.0625ZM89.3875 21.1719C89.3875 20.2448 89.5802 19.3438 89.9656 18.4688C90.1427 18.4688 90.4187 18.5052 90.7937 18.5781C91.1792 18.6406 91.5802 18.724 91.9969 18.8281C91.9344 16.0156 91.9031 13.7083 91.9031 11.9062C91.9031 9.66667 91.9448 7.75521 92.0281 6.17188L89.6219 5.84375C89.4865 5.45833 89.3823 5.03646 89.3094 4.57812C89.2365 4.10938 89.2 3.65625 89.2 3.21875C89.2 2.88542 89.226 2.52083 89.2781 2.125C90.5177 1.65625 92.1479 1.31771 94.1687 1.10938C96.2 0.890625 98.2469 0.78125 100.309 0.78125C102.257 0.78125 103.669 0.869792 104.544 1.04688C105.106 1.39062 105.596 1.73958 106.012 2.09375C106.44 2.4375 106.846 2.86458 107.231 3.375C107.231 4.10417 107.158 4.89583 107.012 5.75C106.877 6.59375 106.684 7.36979 106.434 8.07812C106.195 8.78646 105.934 9.29688 105.653 9.60938C105.414 9.72396 105.148 9.8125 104.856 9.875C104.565 9.92708 104.205 9.95312 103.778 9.95312C103.403 9.95312 103.08 9.92188 102.809 9.85938C102.549 9.78646 102.299 9.68229 102.059 9.54688L101.528 6.14062C100.872 6.03646 100.091 5.98438 99.1844 5.98438C98.9344 5.98438 98.6844 6 98.4344 6.03125C98.3927 7.54167 98.1792 9.59896 97.7937 12.2031C100.106 11.8177 102.08 11.5365 103.716 11.3594C104.132 11.9948 104.341 12.7708 104.341 13.6875C104.341 14.2917 104.257 14.875 104.091 15.4375C103.924 16 103.742 16.3906 103.544 16.6094C103.106 16.6823 102.585 16.7188 101.981 16.7188C101.2 16.7188 100.387 16.651 99.5437 16.5156C98.7104 16.3802 97.9292 16.1823 97.2 15.9219L96.9969 17.25C96.8719 17.9896 96.7625 18.7188 96.6687 19.4375L106.559 18.8594C106.716 19.0052 106.846 19.2969 106.95 19.7344C107.065 20.1719 107.122 20.651 107.122 21.1719C107.122 22.0052 106.955 22.7344 106.622 23.3594C106.289 23.9844 105.846 24.4688 105.294 24.8125C104.752 25.1458 104.169 25.3125 103.544 25.3125C102.919 25.3125 102.065 25.1771 100.981 24.9062C99.9083 24.625 98.8615 24.276 97.8406 23.8594C96.8302 23.4427 96.0854 23.0417 95.6062 22.6562C95.1271 23.4896 94.601 24.125 94.0281 24.5625C93.4656 25 92.7365 25.25 91.8406 25.3125C91.3927 25.2396 90.9812 25.0104 90.6062 24.625C90.2312 24.2396 89.9344 23.7448 89.7156 23.1406C89.4969 22.5365 89.3875 21.8802 89.3875 21.1719ZM112.068 18.7344C113.443 18.7344 114.443 19.0365 115.068 19.6406C115.704 20.2344 116.021 20.9844 116.021 21.8906C116.021 22.4948 115.829 23.0625 115.443 23.5938C115.068 24.1146 114.573 24.5312 113.959 24.8438C113.355 25.1562 112.724 25.3125 112.068 25.3125C111.412 25.3125 110.776 25.1562 110.162 24.8438C109.558 24.5312 109.063 24.1146 108.677 23.5938C108.302 23.0625 108.115 22.4948 108.115 21.8906C108.115 20.9844 108.427 20.2344 109.052 19.6406C109.688 19.0365 110.693 18.7344 112.068 18.7344ZM121.764 18.7344C123.139 18.7344 124.139 19.0365 124.764 19.6406C125.4 20.2344 125.717 20.9844 125.717 21.8906C125.717 22.4948 125.525 23.0625 125.139 23.5938C124.764 24.1146 124.27 24.5312 123.655 24.8438C123.051 25.1562 122.421 25.3125 121.764 25.3125C121.108 25.3125 120.473 25.1562 119.858 24.8438C119.254 24.5312 118.759 24.1146 118.374 23.5938C117.999 23.0625 117.811 22.4948 117.811 21.8906C117.811 20.9844 118.124 20.2344 118.749 19.6406C119.384 19.0365 120.389 18.7344 121.764 18.7344ZM131.461 18.7344C132.836 18.7344 133.836 19.0365 134.461 19.6406C135.096 20.2344 135.414 20.9844 135.414 21.8906C135.414 22.4948 135.221 23.0625 134.836 23.5938C134.461 24.1146 133.966 24.5312 133.351 24.8438C132.747 25.1562 132.117 25.3125 131.461 25.3125C130.804 25.3125 130.169 25.1562 129.554 24.8438C128.95 24.5312 128.455 24.1146 128.07 23.5938C127.695 23.0625 127.507 22.4948 127.507 21.8906C127.507 20.9844 127.82 20.2344 128.445 19.6406C129.08 19.0365 130.086 18.7344 131.461 18.7344Z" fill="#1A202C"/>
</svg>
