<svg width="269" height="56" viewBox="0 0 269 56" fill="none" xmlns="http://www.w3.org/2000/svg">
<g filter="url(#filter0_i_124_198)">
<path d="M0.652191 29.6328C0.652191 24.6081 1.39373 20.1367 2.8768 16.2188C4.38201 12.2786 6.72836 9.16862 9.91586 6.88867C13.1034 4.60872 17.132 3.46875 22.0018 3.46875C25.3221 3.46875 28.8306 3.90039 32.5272 4.76367C33.7225 5.47201 34.7629 6.21354 35.6483 6.98828C36.5558 7.74089 37.4191 8.65951 38.2381 9.74414C38.2381 11.3158 38.0278 13.4076 37.6073 16.0195C37.1867 18.6094 36.6554 21.0332 36.0135 23.291C35.3937 25.5267 34.7961 26.9766 34.2206 27.6406C33.645 27.9284 33.1581 28.1276 32.7596 28.2383C32.3612 28.3268 31.7414 28.3711 30.9002 28.3711C29.8599 28.3711 28.8859 28.2936 27.9784 28.1387C27.0708 27.9837 26.3846 27.7734 25.9198 27.5078L24.7577 16.3184C23.186 15.8757 21.0057 15.6543 18.2166 15.6543C17.464 15.6543 16.9107 15.6654 16.5565 15.6875C15.6047 18.7422 15.0734 22.8483 14.9627 28.0059C14.9406 28.6257 14.9295 29.5664 14.9295 30.8281C14.9295 33.7943 15.0845 36.196 15.3944 38.0332C15.6821 39.7598 15.992 41.0547 16.3241 41.918C16.6561 42.7812 17.2316 43.4453 18.0506 43.9102C18.8918 44.375 20.1424 44.6074 21.8026 44.6074C24.0383 44.6074 26.0969 44.2865 27.9784 43.6445C29.882 42.9805 31.9517 42.0176 34.1873 40.7559C35.0285 41.6634 35.6704 42.4049 36.1131 42.9805C36.578 43.556 36.9985 44.2643 37.3748 45.1055C37.7733 45.9466 38.0389 46.9095 38.1717 47.9941C37.8176 48.7246 36.8768 49.6986 35.3495 50.916C33.8221 52.1335 31.8189 53.2292 29.3397 54.2031C26.8605 55.1771 24.0825 55.6641 21.0057 55.6641C13.8117 55.6641 8.62094 53.4173 5.43344 48.9238C2.24594 44.4303 0.652191 38 0.652191 29.6328ZM41.5106 33.418C41.5106 23.1471 41.7098 16.0859 42.1083 12.2344L38.3563 11.5703C37.8251 9.53385 37.5595 7.34245 37.5595 4.99609C37.8915 4.57552 38.5113 4.05534 39.4188 3.43555C40.3264 2.81576 41.3778 2.27344 42.5731 1.80859C43.7906 1.34375 44.997 1.11133 46.1923 1.11133C48.9149 1.11133 50.9403 1.80859 52.2684 3.20312C53.5966 4.59766 54.2606 6.73372 54.2606 9.61133C54.2606 10.873 54.15 12.9095 53.9286 15.7207C53.7072 18.5098 53.3863 21.5091 52.9657 24.7188C52.5451 27.9062 52.0582 30.7507 51.5048 33.252C51.5048 33.3848 51.5822 33.5065 51.7372 33.6172C51.8921 33.7279 52.0582 33.7832 52.2352 33.7832C52.4345 33.7832 52.5673 33.7057 52.6337 33.5508C53.5191 30.0312 54.4045 27.0872 55.2899 24.7188C56.1753 22.3503 57.5145 20.2474 59.3075 18.4102C61.1005 16.5729 63.4247 15.6543 66.2802 15.6543C69.8218 15.6543 72.3674 16.7389 73.9169 18.9082C75.4664 21.0553 76.2411 23.7669 76.2411 27.043C76.2411 29.9648 75.898 32.7871 75.2118 35.5098C74.5256 38.2103 73.6734 41.0326 72.6552 43.9766C72.6994 43.8659 72.5445 44.2975 72.1903 45.2715L72.2567 45.3379L77.1708 43.2793C78.8973 44.7624 79.9045 46.7324 80.1923 49.1895C80.1923 49.3444 79.6942 49.9863 78.6981 51.1152C77.702 52.222 76.385 53.2624 74.747 54.2363C73.1311 55.1882 71.2717 55.6641 69.1688 55.6641C67.066 55.6641 65.3505 55.0996 64.0223 53.9707C62.6942 52.8418 62.0302 50.916 62.0302 48.1934C62.0302 46.0241 62.1187 43.1243 62.2958 39.4941C62.4729 35.8639 62.65 32.9421 62.827 30.7285C62.2515 30.1087 61.5432 29.7767 60.702 29.7324C59.9273 30.7285 58.7873 32.7207 57.2821 35.709C55.7769 38.6973 54.7144 40.9329 54.0946 42.416C54.0503 42.7259 54.0282 43.0247 54.0282 43.3125C54.0282 44.4193 54.1942 45.9134 54.5263 47.7949C54.8583 49.6543 55.2678 51.3919 55.7548 53.0078C55.3563 53.7604 54.5373 54.3913 53.2977 54.9004C52.0582 55.4095 50.5308 55.6641 48.7157 55.6641C47.0777 55.6641 45.7606 55.5312 44.7645 55.2656C43.7906 55 43.1044 54.7233 42.7059 54.4355C42.3075 54.1257 42.1083 53.9375 42.1083 53.8711C42.0861 53.6719 42.0308 53.1517 41.9423 52.3105C41.8537 51.4473 41.7652 50.252 41.6766 48.7246C41.5881 47.1751 41.5438 45.4154 41.5438 43.4453L41.5106 33.418ZM80.6093 35.377C80.6093 31.3704 81.2512 27.8952 82.5351 24.9512C83.8189 22.0072 85.789 19.7272 88.4452 18.1113C91.1015 16.4733 94.4329 15.6543 98.4394 15.6543C102.866 15.6543 106.342 16.4844 108.865 18.1445C111.389 19.7826 113.148 22.0625 114.144 24.9844C115.163 27.9062 115.672 31.4811 115.672 35.709C115.672 39.5384 114.997 42.9583 113.646 45.9688C112.318 48.957 110.304 51.3255 107.603 53.0742C104.925 54.8008 101.638 55.6641 97.7421 55.6641C91.7213 55.6641 87.3606 53.8158 84.6601 50.1191C81.9596 46.4004 80.6093 41.4863 80.6093 35.377ZM99.1034 45.9355C100.232 45.9355 100.919 45.847 101.162 45.6699C101.671 44.7845 102.059 43.5339 102.324 41.918C102.59 40.3021 102.723 38.5534 102.723 36.6719C102.723 34.9453 102.612 33.3294 102.391 31.8242C102.169 30.2969 101.859 29.1016 101.461 28.2383C101.217 27.9505 100.73 27.7402 99.9999 27.6074C99.2695 27.4525 98.4726 27.375 97.6093 27.375C96.4804 27.375 95.7057 27.4967 95.2851 27.7402C94.1783 29.6439 93.6249 32.2891 93.6249 35.6758C93.6249 37.2695 93.7467 38.8965 93.9902 40.5566C94.2336 42.2168 94.5435 43.722 94.9198 45.0723C95.1855 45.36 95.7278 45.5814 96.5468 45.7363C97.3658 45.8691 98.218 45.9355 99.1034 45.9355ZM119.608 7.35352C119.608 5.4056 120.239 3.82292 121.501 2.60547C122.785 1.38802 124.821 0.779297 127.61 0.779297C130.399 0.779297 132.425 1.38802 133.686 2.60547C134.97 3.82292 135.612 5.4056 135.612 7.35352C135.612 8.46029 135.225 9.47852 134.45 10.4082C133.698 11.3379 132.701 12.0794 131.462 12.6328C130.222 13.1641 128.938 13.4297 127.61 13.4297C126.172 13.4297 124.832 13.1198 123.593 12.5C122.375 11.8581 121.401 11.0612 120.671 10.1094C119.963 9.15755 119.608 8.23893 119.608 7.35352ZM117.981 26.3457C117.694 25.2611 117.494 24.276 117.384 23.3906C117.273 22.4831 117.218 21.5423 117.218 20.5684L117.251 19.6387C117.716 19.041 118.435 18.4434 119.409 17.8457C120.405 17.2259 121.556 16.7057 122.862 16.2852C124.19 15.8646 125.563 15.6543 126.979 15.6543C130.078 15.6543 132.281 16.3516 133.587 17.7461C134.893 19.1406 135.546 21.3099 135.546 24.2539C135.546 26.0247 135.291 28.3379 134.782 31.1934C134.295 34.0488 133.698 36.8268 132.989 39.5273C132.303 42.2057 131.705 44.1204 131.196 45.2715L131.263 45.3379L136.177 43.5449C137.062 44.2975 137.726 45.1276 138.169 46.0352C138.634 46.9427 138.933 47.9941 139.065 49.1895C139.065 49.3444 138.578 49.9863 137.604 51.1152C136.631 52.222 135.336 53.2624 133.72 54.2363C132.126 55.1882 130.278 55.6641 128.175 55.6641C126.05 55.6641 124.323 55.0885 122.995 53.9375C121.689 52.7865 121.036 50.8164 121.036 48.0273C121.036 44.7734 121.125 41.3203 121.302 37.668C121.479 34.0156 121.756 30.474 122.132 27.043L117.981 26.3457ZM139.615 35.709C139.615 31.8796 140.257 28.4596 141.541 25.4492C142.825 22.4388 144.806 20.0592 147.484 18.3105C150.185 16.5397 153.549 15.6543 157.578 15.6543C158.951 15.6543 160.522 15.7428 162.293 15.9199C164.086 16.0749 165.801 16.3184 167.439 16.6504L168.104 17.1152C169.1 17.8014 169.83 18.3548 170.295 18.7754C170.782 19.1738 171.291 19.7383 171.822 20.4688C171.822 21.6641 171.656 23.3132 171.324 25.416C171.014 27.4967 170.616 29.4336 170.129 31.2266C169.642 33.0195 169.177 34.1706 168.734 34.6797C168.004 35.056 166.82 35.2441 165.182 35.2441C164.385 35.2441 163.632 35.1888 162.924 35.0781C162.238 34.9453 161.717 34.7793 161.363 34.5801L160.666 28.4375C160.334 28.0612 159.57 27.7624 158.375 27.541C157.202 27.2975 156.117 27.1758 155.121 27.1758C154.811 27.1758 154.523 27.1979 154.258 27.2422C153.749 28.2826 153.361 29.6107 153.096 31.2266C152.83 32.8424 152.697 34.4915 152.697 36.1738C152.697 38.6087 153.096 40.6784 153.893 42.3828C154.689 44.0651 156.316 44.9062 158.773 44.9062C159.991 44.9062 161.186 44.707 162.359 44.3086C163.555 43.9102 165.06 43.3014 166.875 42.4824C167.628 42.1283 168.192 41.8737 168.568 41.7188C169.454 42.6042 170.151 43.5339 170.66 44.5078C171.169 45.4818 171.501 46.7324 171.656 48.2598C170.24 49.9199 168.247 51.569 165.68 53.207C163.134 54.8451 160.157 55.6641 156.748 55.6641C153.118 55.6641 150.008 54.7897 147.418 53.041C144.85 51.2702 142.902 48.8796 141.574 45.8691C140.268 42.8366 139.615 39.4499 139.615 35.709ZM173.767 35.709C173.767 31.8796 174.409 28.4596 175.692 25.4492C176.976 22.4388 178.957 20.0592 181.636 18.3105C184.336 16.5397 187.701 15.6543 191.73 15.6543C193.832 15.6543 195.935 15.9089 198.038 16.418C200.141 16.9049 201.923 17.724 203.384 18.875C204.734 19.9596 205.708 21.3984 206.306 23.1914C206.926 24.9622 207.235 26.9323 207.235 29.1016C207.235 30.5404 207.114 32.0124 206.87 33.5176C206.605 33.9603 206.084 34.5469 205.31 35.2773C204.535 35.9857 203.627 36.6829 202.587 37.3691C201.547 38.0553 200.539 38.5866 199.565 38.9629C198.636 39.0293 197.673 39.0625 196.677 39.0625C194.928 39.0625 193.157 38.985 191.364 38.8301C189.571 38.6751 188 38.498 186.649 38.2988C186.827 40.1803 187.402 41.8184 188.376 43.2129C189.35 44.6074 190.899 45.3047 193.024 45.3047C193.224 45.3047 193.545 45.2826 193.987 45.2383C195.338 45.1055 196.909 44.7513 198.702 44.1758C200.517 43.5781 202.321 42.8919 204.114 42.1172C204.955 42.9583 205.575 43.7995 205.974 44.6406C206.372 45.4818 206.649 46.6882 206.804 48.2598C206.118 49.0566 205 50.0306 203.45 51.1816C201.923 52.3327 200.052 53.373 197.839 54.3027C195.625 55.2103 193.312 55.6641 190.899 55.6641C187.269 55.6641 184.159 54.7897 181.569 53.041C179.002 51.2702 177.054 48.8796 175.726 45.8691C174.42 42.8366 173.767 39.4499 173.767 35.709ZM195.149 28.0723C194.84 27.7402 194.319 27.4857 193.589 27.3086C192.858 27.1094 192.095 27.0098 191.298 27.0098C190.656 27.0098 190.003 27.0651 189.339 27.1758C188.697 27.2865 188.31 27.4082 188.177 27.541C187.424 29.0241 186.948 30.7064 186.749 32.5879L195.614 31.7246L195.149 28.0723ZM218.676 41.6855C221.598 41.6855 223.723 42.3275 225.051 43.6113C226.401 44.873 227.076 46.4668 227.076 48.3926C227.076 49.6764 226.667 50.8828 225.848 52.0117C225.051 53.1185 223.999 54.0039 222.693 54.668C221.41 55.332 220.07 55.6641 218.676 55.6641C217.281 55.6641 215.931 55.332 214.625 54.668C213.341 54.0039 212.29 53.1185 211.471 52.0117C210.674 50.8828 210.275 49.6764 210.275 48.3926C210.275 46.4668 210.94 44.873 212.268 43.6113C213.618 42.3275 215.754 41.6855 218.676 41.6855ZM239.28 41.6855C242.202 41.6855 244.327 42.3275 245.655 43.6113C247.006 44.873 247.681 46.4668 247.681 48.3926C247.681 49.6764 247.271 50.8828 246.452 52.0117C245.655 53.1185 244.604 54.0039 243.298 54.668C242.014 55.332 240.675 55.6641 239.28 55.6641C237.886 55.6641 236.536 55.332 235.23 54.668C233.946 54.0039 232.894 53.1185 232.075 52.0117C231.278 50.8828 230.88 49.6764 230.88 48.3926C230.88 46.4668 231.544 44.873 232.872 43.6113C234.222 42.3275 236.359 41.6855 239.28 41.6855ZM259.885 41.6855C262.807 41.6855 264.932 42.3275 266.26 43.6113C267.61 44.873 268.285 46.4668 268.285 48.3926C268.285 49.6764 267.876 50.8828 267.057 52.0117C266.26 53.1185 265.208 54.0039 263.902 54.668C262.619 55.332 261.279 55.6641 259.885 55.6641C258.49 55.6641 257.14 55.332 255.834 54.668C254.55 54.0039 253.499 53.1185 252.68 52.0117C251.883 50.8828 251.485 49.6764 251.485 48.3926C251.485 46.4668 252.149 44.873 253.477 43.6113C254.827 42.3275 256.963 41.6855 259.885 41.6855Z" fill="#F5F5F5"/>
</g>
<defs>
<filter id="filter0_i_124_198" x="0.652222" y="0.779297" width="267.633" height="58.8848" filterUnits="userSpaceOnUse" color-interpolation-filters="sRGB">
<feFlood flood-opacity="0" result="BackgroundImageFix"/>
<feBlend mode="normal" in="SourceGraphic" in2="BackgroundImageFix" result="shape"/>
<feColorMatrix in="SourceAlpha" type="matrix" values="0 0 0 0 0 0 0 0 0 0 0 0 0 0 0 0 0 0 127 0" result="hardAlpha"/>
<feOffset dy="4"/>
<feGaussianBlur stdDeviation="2"/>
<feComposite in2="hardAlpha" operator="arithmetic" k2="-1" k3="1"/>
<feColorMatrix type="matrix" values="0 0 0 0 0 0 0 0 0 0 0 0 0 0 0 0 0 0 0.25 0"/>
<feBlend mode="normal" in2="shape" result="effect1_innerShadow_124_198"/>
</filter>
</defs>
</svg>
